<?xml version="1.0" encoding="utf-8"?>
<!-- Generator: Adobe Illustrator 25.4.1, SVG Export Plug-In . SVG Version: 6.00 Build 0)  -->
<svg version="1.0" id="Layer_1" xmlns="http://www.w3.org/2000/svg" xmlns:xlink="http://www.w3.org/1999/xlink" x="0px" y="0px"
	 viewBox="0 0 383.9 292.2" style="enable-background:new 0 0 383.9 292.2;" xml:space="preserve">
<style type="text/css">
	.st0{fill:#FFFFFF;}
	.st1{fill:#FF2116;}
	.st2{fill:#2C2C2C;}
	.st3{fill:none;}
</style>
<g id="Surface">
	<g id="Document">
		<path class="st0" d="M131.1,240.4c-8.3,0.1-15.1-6.6-15.2-14.9c0-0.1,0-0.2,0-0.3V67c-0.1-8.3,6.6-15.1,14.9-15.2
			c0.1,0,0.2,0,0.3,0h93.7c3.2-0.1,6.4,1.3,8.5,3.7l31,31c2.3,2.2,3.6,5.3,3.6,8.5v130.2c0.1,8.3-6.6,15.1-14.9,15.2
			c-0.1,0-0.2,0-0.3,0H131.1z"/>
		<path class="st1" d="M224.8,54.8c2.4-0.1,4.8,0.9,6.4,2.7l31,31c1.8,1.7,2.7,4,2.7,6.4v130.2c0,6.7-5.5,12.2-12.2,12.2H131.1
			c-6.7,0-12.2-5.5-12.2-12.2V67c0-6.7,5.5-12.1,12.2-12.1H224.8 M224.8,48.8h-93.7c-10.1,0-18.2,8.2-18.3,18.2v158.2
			c0,10.1,8.2,18.2,18.3,18.3h121.7c10.1,0,18.2-8.2,18.3-18.3V95c0.1-4-1.6-7.9-4.6-10.6l-31-31C232.7,50.4,228.9,48.8,224.8,48.8
			L224.8,48.8z"/>
	</g>
</g>
<g id="_256">
	<path class="st1" d="M229.3,136.5c-1.4-1.3-3.2-2.3-5.1-2.7c-2.7-0.7-5.5-1-8.3-1c-1.9,0-3.9,0.1-5.8,0.3c-2,0.2-4.2,0.5-6.4,0.9
		c-1.3-1.2-2.6-2.6-3.9-4c-1.3-1.4-2.5-3-3.8-4.7c-0.8-1.2-1.7-2.4-2.5-3.7c-0.8-1.2-1.6-2.4-2.2-3.6c1.1-3.6,2.1-7.1,2.8-10.3
		c0.7-2.9,1.1-5.9,1.1-8.8c0-2.2-0.4-4.5-1.3-6.5c-1-2.3-3.2-3.7-5.7-3.7c-0.8,0-1.6,0.2-2.3,0.6c-0.7,0.4-1.3,1-1.7,1.7
		c-1.1,2-1.5,5.5-1,9.6c0.6,4.7,2,9.4,4,13.7c-0.8,2.3-1.6,4.6-2.5,7s-1.9,4.9-3,7.6c-0.9,2.2-1.9,4.4-3,6.6c-1.1,2.2-2,4.3-3.2,6.4
		c-5.3,2-10.3,4.6-15,7.7c-3.7,2.6-5.9,5.1-6.2,7.4c-0.2,0.7-0.1,1.5,0.1,2.2c0.3,0.7,0.7,1.4,1.3,1.9c0.5,0.4,1.1,0.8,1.7,1.1
		c0.9,0.4,1.9,0.6,2.8,0.6c3.6,0,7.4-2.6,11-6.6c3.9-4.5,7.3-9.4,10.1-14.7c1.7-0.6,3.4-1.2,5.1-1.7s3.5-1,5.4-1.5
		c1.8-0.5,3.9-1,5.8-1.4c1.9-0.4,3.7-0.7,5.5-1.1c3.4,3.2,7.5,5.7,11.9,7.3c2.7,0.9,5.5,1.4,8.4,1.4c1.7,0.1,3.3-0.2,4.9-1
		c0.9-0.5,1.5-1.3,1.8-2.2c0.3-0.9,0.3-1.9,0.1-2.8C230.2,137.7,229.8,137,229.3,136.5z M185.7,91.8c0.3-0.5,0.7-0.9,1.1-1.2
		c0.4-0.3,0.9-0.4,1.5-0.4c1,0,2,0.5,2.5,1.3c0.7,1.2,1,2.6,0.9,4c-0.1,2.4-0.4,4.8-0.9,7.1c-0.6,2.9-1.4,6.1-2.5,9.6
		c-1.8-4-3-8.3-3.5-12.8C184.5,95.9,184.8,93.2,185.7,91.8z M155.8,157c0.4-1.9,2.3-4.1,5.6-6.3c4.1-2.7,8.5-5,13.1-6.9
		c-2.5,4.4-5.4,8.5-8.8,12.2c-2.7,2.9-5.2,4.5-7,4.5c-0.3,0-0.7-0.1-1-0.2c-0.3-0.1-0.6-0.3-0.9-0.6c-0.4-0.4-0.6-0.8-0.8-1.3
		C155.8,158,155.8,157.5,155.8,157z M201.9,134.4c-1.6,0.3-3.3,0.6-5,1c-1.7,0.3-3.5,0.8-5.2,1.2c-1.5,0.4-3,0.8-4.5,1.2
		c-1.5,0.4-3,1-4.4,1.5c0.8-1.6,1.6-3.1,2.4-4.7c0.7-1.5,1.4-3,1.9-4.5c0.7-1.7,1.4-3.4,2-5.1c0.6-1.7,1.3-3.5,1.9-5.2
		c0.6,1.1,1.2,2.1,1.9,3.2s1.4,2.1,2.2,3.2c1.1,1.4,2.2,2.9,3.3,4.2S200.7,133.1,201.9,134.4L201.9,134.4z M204.9,135.3
		c3.3-0.6,6.6-0.9,9.9-1c2.2-0.1,4.4,0.1,6.6,0.4c1.2,0.2,2.3,0.8,3.1,1.8c0.7,0.9,0.9,2,0.7,3.1c-0.2,1.3-1.1,2.3-2.3,2.8
		c-1.4,0.6-3,0.7-4.5,0.3c-2.6-0.7-5.1-1.7-7.4-3C208.9,138.4,206.9,136.9,204.9,135.3L204.9,135.3z"/>
</g>
<path class="st2" d="M161,188.4c0,0,0-0.1,0-0.1c0,0,0-0.1,0-0.1c0,0,0,0,0.1-0.1h0.1c0.4,0,0.9,0,1.4-0.1h1.6h1.8h1.9
	c1.6,0,3.1,0.2,4.6,0.7c1.2,0.4,2.3,1,3.2,1.9c0.8,0.8,1.5,1.8,1.8,2.8c0.4,1.1,0.6,2.3,0.6,3.5c0,1.4-0.3,2.9-0.8,4.2
	c-0.5,1.1-1.3,2.1-2.3,2.9c-1,0.8-2.1,1.3-3.3,1.7c-1.3,0.4-2.7,0.6-4.1,0.5h-0.6h-0.5H166h-0.5v9.9c0,0.1,0,0.1,0,0.1
	c0,0,0,0.1,0,0.1c0,0-0.1,0-0.1,0.1h-0.1h-4h-0.1c-0.1,0-0.1-0.1-0.1-0.1c0,0,0-0.1,0-0.1v-21L161,188.4z M165.6,202.1h0.4h1.7
	c0.7,0,1.5-0.1,2.2-0.2c0.7-0.2,1.3-0.4,1.9-0.8c0.6-0.4,1-0.9,1.3-1.6c0.3-0.8,0.5-1.7,0.5-2.5c0-0.7-0.1-1.5-0.4-2.1
	c-0.2-0.6-0.6-1.1-1.1-1.6c-0.5-0.4-1.1-0.7-1.7-0.9c-0.8-0.2-1.5-0.3-2.3-0.3h-0.8h-0.7H166c-0.2,0-0.3,0-0.4,0V202.1L165.6,202.1z
	"/>
<path class="st2" d="M182.7,188.5c0,0,0-0.1,0-0.1c0,0,0-0.1,0-0.1c0,0,0.1-0.1,0.1-0.1h0.2h1h1.6c0.6,0,1.2,0,1.9,0h2.1
	c1.9,0,3.9,0.3,5.7,1c1.5,0.6,2.9,1.6,4,2.8c1.1,1.3,1.9,2.7,2.4,4.4c0.6,1.8,0.8,3.7,0.8,5.6c0.1,2.4-0.4,4.8-1.2,7.1
	c-1.3,3.3-4,5.9-7.5,7c-1.4,0.5-3,0.7-4.5,0.7h-1.6h-1.9h-1.7c-0.5,0-0.9,0-1.2,0h-0.1c0,0-0.1,0-0.1-0.1c0,0,0-0.1,0-0.1
	c0,0,0-0.1,0-0.1L182.7,188.5L182.7,188.5z M187.4,212.4h0.5h0.5h0.5h0.6c1.1,0,2.3-0.2,3.3-0.6c1-0.4,1.9-1.1,2.6-1.9
	c0.8-1,1.4-2.1,1.8-3.3c0.4-1.5,0.7-3.1,0.6-4.7c0-1.5-0.2-3-0.6-4.5c-0.4-1.1-0.9-2.1-1.7-3c-0.7-0.8-1.6-1.4-2.6-1.7
	c-1-0.4-2.1-0.5-3.2-0.5H189h-0.6h-0.6c-0.2,0-0.4,0-0.6,0L187.4,212.4L187.4,212.4z"/>
<path class="st2" d="M212.4,216.1c0,0.1,0,0.1,0,0.2c0,0,0,0.1-0.1,0.1h-0.1h-0.1H208h-0.1c0,0-0.1,0-0.1,0c0,0,0-0.1,0-0.1
	c0-0.1,0-0.1,0-0.2v-27.7c0,0,0-0.1,0-0.1c0,0,0-0.1,0-0.1c0,0,0.1,0,0.1-0.1h14.4c0,0,0.1,0,0.1,0.1c0,0,0,0.1,0.1,0.1
	c0,0,0,0.1,0,0.1l0.1,0.9l0.1,0.9l0.1,0.9l0.1,0.9v0.2c0,0,0,0.1-0.1,0.1c0,0-0.1,0-0.1,0.1h-0.2h-10.2v8.1h9.3c0,0,0.1,0,0.1,0
	c0,0,0.1,0,0.1,0.1c0,0.1,0,0.1,0,0.2v3.6c0,0.1,0,0.1,0,0.2c0,0,0,0.1-0.1,0.1c0,0-0.1,0-0.1,0h-9.3V216L212.4,216.1z"/>
<path class="st3" d="M145.7,149.8v-5h-0.8V144h0.8v-0.3c-0.1-0.7,0.2-1.4,0.7-2c0.4-0.4,0.9-0.6,1.4-0.5c0.3,0,0.6,0.1,0.9,0.2
	l-0.1,0.8c-0.2-0.1-0.4-0.1-0.7-0.1c-0.9,0-1.1,0.8-1.1,1.7v0.3h1.4v0.8h-1.4v5H145.7z"/>
<path class="st3" d="M149.1,145.8c0-0.7,0-1.3,0-1.8h0.9v1.1l0,0c0.2-0.7,0.9-1.2,1.6-1.3c0.1,0,0.2,0,0.3,0v1c-0.1,0-0.2,0-0.4,0
	c-0.7,0-1.3,0.6-1.4,1.4c0,0.2,0,0.3,0,0.5v3.1h-1L149.1,145.8z"/>
<path class="st3" d="M153.5,147.1c-0.1,1,0.7,1.9,1.7,2c0.1,0,0.2,0,0.3,0c0.5,0,1.1-0.1,1.6-0.3l0.2,0.8c-0.6,0.3-1.3,0.4-1.9,0.4
	c-1.5,0.1-2.8-1-2.9-2.5c0-0.1,0-0.3,0-0.4c0-1.8,1-3.1,2.7-3.1c1.4,0,2.4,1.1,2.4,2.5c0,0.1,0,0.2,0,0.2c0,0.2,0,0.3,0,0.5H153.5z
	 M156.5,146.4c0.1-0.8-0.5-1.6-1.3-1.7c-0.1,0-0.1,0-0.2,0c-0.9,0.1-1.6,0.8-1.6,1.7H156.5z"/>
<path class="st3" d="M159.5,147.1c-0.1,1,0.7,1.9,1.7,2c0.1,0,0.2,0,0.3,0c0.6,0,1.1-0.1,1.6-0.3l0.2,0.8c-0.6,0.3-1.3,0.4-1.9,0.4
	c-1.5,0.1-2.8-1-2.9-2.5c0-0.1,0-0.3,0-0.4c0-1.8,1-3.1,2.7-3.1c1.4,0,2.4,1.1,2.4,2.5c0,0.1,0,0.2,0,0.2c0,0.2,0,0.3,0,0.5H159.5z
	 M162.5,146.4c0.1-0.8-0.5-1.6-1.3-1.7c-0.1,0-0.1,0-0.2,0c-0.9,0.1-1.6,0.8-1.6,1.7H162.5z"/>
<path class="st3" d="M164.9,141.3h1.1v8.5h-1.1V141.3z"/>
<path class="st3" d="M173,146.9c0.1,1.6-1,2.9-2.6,3.1c-0.1,0-0.2,0-0.3,0c-1.5,0-2.8-1.2-2.8-2.7c0-0.1,0-0.2,0-0.3
	c-0.1-1.6,1-2.9,2.6-3.1c0.1,0,0.2,0,0.3,0c1.5,0,2.8,1.2,2.8,2.7C173,146.7,173,146.8,173,146.9z M168.4,147c0,1.3,0.7,2.2,1.8,2.2
	s1.8-1,1.8-2.3c0-1-0.5-2.2-1.7-2.2S168.4,145.8,168.4,147z"/>
<path class="st3" d="M179.3,144c0,0.4,0,0.9,0,1.6v3.4c0.1,1-0.2,1.9-0.8,2.6c-0.6,0.5-1.3,0.7-2.1,0.7c-0.7,0-1.4-0.2-1.9-0.5
	l0.3-0.8c0.5,0.3,1.1,0.5,1.7,0.5c1.1,0,1.9-0.6,1.9-2v-0.7l0,0c-0.4,0.6-1.1,1-1.9,1c-1.4-0.1-2.5-1.3-2.5-2.7c0,0,0-0.1,0-0.1
	c-0.2-1.5,0.9-2.9,2.5-3.1c0,0,0.1,0,0.1,0c0.7,0,1.4,0.3,1.8,1l0,0v-0.9L179.3,144z M178.2,146.3c0-0.2,0-0.3-0.1-0.5
	c-0.2-0.7-0.8-1.1-1.5-1.1c-1,0-1.7,0.8-1.7,2.2c0,1.1,0.6,2.1,1.7,2.1c0.7,0,1.3-0.4,1.5-1.1c0.1-0.2,0.1-0.4,0.1-0.6V146.3z"/>
<path class="st3" d="M186.3,146.9c0.1,1.6-1,2.9-2.6,3.1c-0.1,0-0.2,0-0.3,0c-1.5,0-2.8-1.2-2.8-2.7c0-0.1,0-0.2,0-0.3
	c-0.1-1.6,1-2.9,2.6-3.1c0.1,0,0.2,0,0.3,0c1.5,0,2.7,1.2,2.8,2.7C186.3,146.7,186.3,146.8,186.3,146.9z M181.7,147
	c0,1.3,0.7,2.2,1.8,2.2s1.8-1,1.8-2.3c0-1-0.5-2.2-1.7-2.2S181.7,145.8,181.7,147z"/>
<path class="st3" d="M188,144l1.1,3.3c0.2,0.5,0.3,1,0.5,1.5l0,0c0.1-0.5,0.3-1,0.5-1.5l1.1-3.3h1.1l-2.2,5.8h-1l-2.2-5.8H188z"/>
<path class="st3" d="M193.8,147.1c-0.1,1,0.7,1.9,1.7,2c0.1,0,0.2,0,0.3,0c0.6,0,1.1-0.1,1.6-0.3l0.2,0.8c-0.6,0.3-1.3,0.4-1.9,0.4
	c-1.5,0.1-2.8-1-2.9-2.5c0-0.1,0-0.3,0-0.4c0-1.8,1-3.1,2.7-3.1c1.4,0,2.4,1.2,2.4,2.5c0,0.1,0,0.1,0,0.2c0,0.2,0,0.3,0,0.5
	L193.8,147.1z M196.9,146.4c0.1-0.8-0.5-1.6-1.3-1.7c-0.1,0-0.1,0-0.2,0c-0.9,0.1-1.6,0.8-1.6,1.7H196.9z"/>
<path class="st3" d="M203.4,149.6c-0.5,0.2-1.1,0.4-1.7,0.3c-1.5,0.1-2.8-1.1-2.9-2.6c0-0.1,0-0.3,0-0.4c-0.1-1.7,1.3-3,2.9-3.1
	c0.1,0,0.1,0,0.2,0c0.5,0,1,0.1,1.5,0.3l-0.2,0.8c-0.4-0.2-0.8-0.3-1.2-0.3c-1.2,0.1-2.1,1.1-2,2.3c0.1,1.1,0.9,2,2,2
	c0.4,0,0.9-0.1,1.3-0.3L203.4,149.6z"/>
<path class="st3" d="M206,142.4v1.7h1.5v0.8H206v3.1c0,0.7,0.2,1.1,0.8,1.1c0.2,0,0.4,0,0.6-0.1l0.1,0.8c-0.3,0.1-0.6,0.2-0.9,0.1
	c-0.4,0-0.8-0.1-1.1-0.4c-0.3-0.4-0.5-1-0.4-1.5v-3.2h-0.9V144h0.9v-1.4L206,142.4z"/>
<path class="st3" d="M213.9,146.9c0.1,1.6-1,2.9-2.6,3.1c-0.1,0-0.2,0-0.3,0c-1.5,0-2.8-1.2-2.8-2.7c0-0.1,0-0.2,0-0.3
	c-0.1-1.6,1-2.9,2.6-3.1c0.1,0,0.2,0,0.3,0c1.5,0,2.8,1.2,2.8,2.7C213.9,146.7,213.9,146.8,213.9,146.9z M209.3,147
	c0,1.3,0.7,2.2,1.8,2.2s1.8-1,1.8-2.3c0-1-0.5-2.2-1.7-2.2S209.3,145.8,209.3,147z"/>
<path class="st3" d="M215.2,145.8c0-0.7,0-1.3,0-1.8h0.9v1.1l0,0c0.2-0.7,0.8-1.2,1.6-1.3c0.1,0,0.2,0,0.3,0v1c-0.1,0-0.2,0-0.4,0
	c-0.7,0-1.3,0.6-1.4,1.4c0,0.2,0,0.3-0.1,0.5v3.1h-1L215.2,145.8z"/>
<path class="st3" d="M219,148.8c0.4,0.3,0.9,0.4,1.4,0.4c0.8,0,1.1-0.4,1.1-0.9c0-0.5-0.3-0.8-1.1-1.1c-1-0.4-1.5-1-1.5-1.6
	c0-1,0.9-1.8,1.9-1.7c0,0,0.1,0,0.1,0c0.5,0,1,0.1,1.4,0.4l-0.3,0.8c-0.4-0.2-0.8-0.3-1.2-0.3c-0.6,0-1,0.4-1,0.8
	c0,0.4,0.3,0.7,1.1,1c1,0.4,1.5,0.9,1.5,1.8c0,1-0.8,1.7-2.2,1.7c-0.6,0-1.1-0.1-1.6-0.4L219,148.8z"/>
<path class="st3" d="M223.5,149.2c0-0.4,0.3-0.7,0.7-0.7c0,0,0,0,0.1,0c0.4,0,0.7,0.4,0.7,0.8c0,0.4-0.3,0.6-0.7,0.7
	C223.9,150,223.5,149.7,223.5,149.2C223.5,149.3,223.5,149.2,223.5,149.2z"/>
<path class="st3" d="M226.3,145.6c0-0.6,0-1.1-0.1-1.6h0.9l0.1,1l0,0c0.4-0.7,1.1-1.1,1.9-1.1c0.8,0,2.1,0.5,2.1,2.5v3.4h-1.1v-3.4
	c0-0.9-0.4-1.7-1.3-1.7c-0.7,0-1.2,0.4-1.4,1.1c-0.1,0.2-0.1,0.3-0.1,0.5v3.5h-1.1L226.3,145.6z"/>
<path class="st3" d="M233.5,147.1c-0.1,1,0.7,1.9,1.7,2c0.1,0,0.2,0,0.3,0c0.6,0,1.1-0.1,1.6-0.3l0.2,0.8c-0.6,0.3-1.3,0.4-1.9,0.4
	c-1.5,0.1-2.8-1-2.9-2.5c0-0.1,0-0.3,0-0.4c0-1.8,1-3.1,2.7-3.1c1.4,0,2.4,1.2,2.4,2.5c0,0.1,0,0.1,0,0.2c0,0.2,0,0.3,0,0.5
	L233.5,147.1z M236.6,146.4c0.1-0.8-0.5-1.6-1.3-1.7c-0.1,0-0.1,0-0.2,0c-0.9,0.1-1.6,0.8-1.6,1.7H236.6z"/>
<path class="st3" d="M240.2,142.4v1.7h1.5v0.8h-1.5v3.1c0,0.7,0.2,1.1,0.8,1.1c0.2,0,0.4,0,0.6-0.1v0.8c-0.3,0.1-0.6,0.2-0.9,0.1
	c-0.4,0-0.8-0.1-1.1-0.4c-0.3-0.4-0.5-1-0.4-1.5v-3.2h-0.9V144h0.9v-1.4L240.2,142.4z"/>
</svg>
